# xmcd CD database file
#
# Track frame offsets:
#	150
#	19143
#	32025
#	43695
#	55827
#	67540
#	79241
#	86841
#	94026
#	105417
#	119005
#	130643
#	142906
#	162044
#	173331
#	186670
#	198633
#	210833
#	219934
#
# Disc length: 3209 seconds
#
# Revision: 1
# Processed by: cddbd v1.5PL3 Copyright (c) Steve Scherf et al.
# Submitted via: CDex 1.51
#
DISCID=f70c8713
DTITLE=Sojiro - Heart Obtained  Vol 01
DYEAR=1991
DGENRE=New Age
TTITLE0=Early Spring Chinese Poem
TTITLE1=Spring
TTITLE2=Spring Brook
TTITLE3=Leaf
TTITLE4=Night with a Clouded-over Moon
TTITLE5=Summer Does Not Come.
TTITLE6=Sea
TTITLE7=Mr. Shelf
TTITLE8=Crack is Marine Child.
TTITLE9=Red Leaf
TTITLE10=Mountain of
TTITLE11=Moupanese Titlelage Festival
TTITLE12=Reason
TTITLE13=Voice of Insect
TTITLE14=Night of Winter
TTITLE15=Winter Scene
TTITLE16=January 1
TTITLE17=New Year
TTITLE18=If it Looks, it Will
EXTD=YEAR: 1991
EXTT0=
EXTT1=
EXTT2=
EXTT3=
EXTT4=
EXTT5=
EXTT6=
EXTT7=
EXTT8=
EXTT9=
EXTT10=
EXTT11=
EXTT12=
EXTT13=
EXTT14=
EXTT15=
EXTT16=
EXTT17=
EXTT18=
PLAYORDER=
